<?xml version="1.0" encoding="UTF-8"?>
<svg id="Layer_2" xmlns="http://www.w3.org/2000/svg" viewBox="0 0 393.44 306.07">
  <g id="Layer_1-2" data-name="Layer_1">
    <g>
      <path d="M106.83.12c33.76.69,61.61,13.64,83.01,40,5.65,6.96,8.45,7.02,14.03.12,40.45-50.1,114.17-54,159.36-8.43,43.68,44.04,39.51,117.27-9.33,155.68-33.91,26.66-68.37,52.62-102.58,78.9-15.58,11.97-31.17,23.93-46.73,35.93-6.45,4.98-8.91,5.04-15.46.02-48.51-37.19-97.03-74.35-145.5-111.6C19.7,172.34,4.89,148.49.83,118.3-4.69,77.28,17.71,33.49,54.16,13.71,70.62,4.78,88.03.03,106.83.12ZM16.45,105.25c-.11,27.15,12.11,53.01,33.54,69.57,46.65,36.06,93.45,71.92,140.21,107.85,4.89,3.76,8.57,3.6,13.55-.22,43.71-33.59,87.35-67.3,131.21-100.69,14.95-11.39,27.87-24.16,35.4-41.78,13.81-32.31,6.39-72.79-21.4-99.12-31.74-30.07-83.16-33.04-117.29-5.65-13.72,11.02-23.44,24.86-30.1,41.07-.82,1.99-3.23,3.32-4.9,4.95-1.61-1.71-3.28-3.38-4.8-5.17-.51-.6-.64-1.52-.98-2.28-14.48-32.5-38.73-52.46-74.47-56.91C64.02,10.35,16.66,52.4,16.45,105.25Z"/>
      <path d="M263.04,165.52c-5.17,0-10.33.02-15.5,0-8.57-.05-9.63-.78-12.75-9-2.13-5.61-3.96-11.34-6.34-16.84-.87-2.01-2.94-3.51-4.46-5.25-1.52,1.8-3.74,3.36-4.44,5.44-7.91,23.36-15.52,46.82-23.41,70.19-.83,2.46-2.92,4.5-4.43,6.74-1.89-2.1-4.44-3.89-5.58-6.34-7.08-15.27-13.83-30.69-20.73-46.04-2.93-6.52-3.58-6.68-10.04-3.84-1.8.79-3.82,1.47-5.74,1.49-12.83.13-25.67.19-38.49,0-5.73-.09-8.23-3.84-7.12-9.44.83-4.17,3.63-5.2,7.32-5.19,8.67.02,17.33.05,26,0,7.92-.05,9.71-1.33,12.51-8.82,1.81-4.84,3.36-9.78,5.4-14.52.71-1.64,2.56-2.78,3.89-4.15,1.33,1.33,3.18,2.43,3.92,4.04,6.58,14.4,12.83,28.95,19.51,43.29,1.5,3.21,4.31,5.81,6.52,8.7,2.06-2.99,4.93-5.71,6.05-9.02,7.9-23.19,15.44-46.49,23.09-69.76.36-1.11.53-2.36,1.15-3.29,1.05-1.56,2.39-2.92,3.61-4.36,1.35,1.47,3.3,2.72,3.96,4.46,5.99,15.73,11.75,31.54,17.58,47.33,3.19,8.64,4.82,9.82,13.87,9.86,7.83.03,15.67-.06,23.5.07,5.65.1,7.88,2.27,8.03,7.34.13,4.41-2.37,6.74-7.89,6.87-6.33.15-12.67.04-19,.04v.02Z"/>
    </g>
  </g>
</svg>